<svg xmlns="http://www.w3.org/2000/svg" xmlns:xlink="http://www.w3.org/1999/xlink" id="Layer_1" x="0" y="0" version="1.1" viewBox="0 0 1440 900" xml:space="preserve" style="enable-background:new 0 0 1440 900"><style type="text/css">.st1{opacity:.1;fill:#795548}</style><g class="st0"><g><g><rect width="237.4" height="237.4" x="90.3" y="109.5" class="st1"/><rect width="219.9" height="24.6" x="90.3" y="360.9" class="st1"/><rect width="207" height="21.1" x="90.3" y="400.7" class="st1"/></g><g><rect width="237.4" height="237.4" x="436.5" y="109.5" class="st1"/><rect width="219.9" height="24.6" x="436.5" y="360.9" class="st1"/><rect width="207" height="21.1" x="436.5" y="400.7" class="st1"/></g></g><g><g><rect width="237.4" height="237.4" x="766.1" y="109.5" class="st1"/><rect width="219.9" height="24.6" x="766.1" y="360.9" class="st1"/><rect width="207" height="21.1" x="766.1" y="400.7" class="st1"/></g><g><rect width="237.4" height="237.4" x="1112.3" y="109.5" class="st1"/><rect width="219.9" height="24.6" x="1112.3" y="360.9" class="st1"/><rect width="207" height="21.1" x="1112.3" y="400.7" class="st1"/></g></g></g><g class="st0"><g><g><rect width="237.4" height="237.4" x="90.3" y="523" class="st1"/><rect width="219.9" height="24.6" x="90.3" y="774.4" class="st1"/><rect width="207" height="21.1" x="90.3" y="814.2" class="st1"/></g><g><rect width="237.4" height="237.4" x="436.5" y="523" class="st1"/><rect width="219.9" height="24.6" x="436.5" y="774.4" class="st1"/><rect width="207" height="21.1" x="436.5" y="814.2" class="st1"/></g></g><g><g><rect width="237.4" height="237.4" x="766.1" y="523" class="st1"/><rect width="219.9" height="24.6" x="766.1" y="774.4" class="st1"/><rect width="207" height="21.1" x="766.1" y="814.2" class="st1"/></g><g><rect width="237.4" height="237.4" x="1112.3" y="523" class="st1"/><rect width="219.9" height="24.6" x="1112.3" y="774.4" class="st1"/><rect width="207" height="21.1" x="1112.3" y="814.2" class="st1"/></g></g></g></svg>